<svg height="300pt" preserveAspectRatio="xMidYMid meet" viewBox="0 0 300 300" width="300pt" xmlns="http://www.w3.org/2000/svg"><path d="m1320 2968c-30-4-64-10-75-12-52-8-173-40-197-53-16-7-28-11-28-9 0 8-158-65-230-106-87-48-209-142-294-226-63-62-206-241-206-258 0-4-6-15-14-23-26-29-104-195-136-289-60-180-74-267-74-482-1-168 2-209 22-300 35-157 100-338 144-402 10-14 18-29 18-34 0-4 30-52 67-108 73-109 229-275 328-347 55-40 213-139 222-139 2 0 30-12 61-26 118-54 265-95 402-112 72-8 290-7 360 2 473 64 896 377 1104 817 99 209 138 381 142 624 2 156-1 192-30 345-47 251-219 561-411 741-32 30-66 61-75 69-21 20-115 89-166 122-134 86-350 170-499 194-22 3-44 8-49 11-15 10-328 11-386 1z" transform="matrix(.1 0 0 -.1 0 300)"/></svg>